<?xml version="1.0" encoding="UTF-8" standalone="no"?>
<!-- Generator: Adobe Illustrator 18.0.0, SVG Export Plug-In . SVG Version: 6.00 Build 0)  -->

<svg
   xmlns:dc="http://purl.org/dc/elements/1.1/"
   xmlns:cc="http://creativecommons.org/ns#"
   xmlns:rdf="http://www.w3.org/1999/02/22-rdf-syntax-ns#"
   xmlns:svg="http://www.w3.org/2000/svg"
   xmlns="http://www.w3.org/2000/svg"
   xmlns:sodipodi="http://sodipodi.sourceforge.net/DTD/sodipodi-0.dtd"
   xmlns:inkscape="http://www.inkscape.org/namespaces/inkscape"
   version="1.1"
   id="Capa_1"
   x="0px"
   y="0px"
   viewBox="0 0 442 442"
   style="enable-background:new 0 0 442 442;"
   xml:space="preserve"
   inkscape:version="0.91 r"
   width="100%"
   height="100%"
   sodipodi:docname="borrador.svg"><metadata
     id="metadata45"><rdf:RDF><cc:Work
         rdf:about=""><dc:format>image/svg+xml</dc:format><dc:type
           rdf:resource="http://purl.org/dc/dcmitype/StillImage" /><dc:title></dc:title></cc:Work></rdf:RDF></metadata><defs
     id="defs43"><filter
       inkscape:collect="always"
       style="color-interpolation-filters:sRGB"
       id="filter4420"
       x="-0.031911377"
       width="1.0638227"
       y="-0.041290291"
       height="1.0825806"><feGaussianBlur
         inkscape:collect="always"
         stdDeviation="0.3663825"
         id="feGaussianBlur4422" /></filter></defs><sodipodi:namedview
     pagecolor="#ffffff"
     bordercolor="#666666"
     borderopacity="1"
     objecttolerance="10"
     gridtolerance="10"
     guidetolerance="10"
     inkscape:pageopacity="0"
     inkscape:pageshadow="2"
     inkscape:window-width="1366"
     inkscape:window-height="706"
     id="namedview41"
     showgrid="false"
     inkscape:zoom="0.53393665"
     inkscape:cx="-157.32203"
     inkscape:cy="295.91525"
     inkscape:window-x="0"
     inkscape:window-y="0"
     inkscape:window-maximized="1"
     inkscape:current-layer="Capa_1" /><g
     id="g11" /><g
     id="g13" /><g
     id="g15" /><g
     id="g17" /><g
     id="g19" /><g
     id="g21" /><g
     id="g23" /><g
     id="g25" /><g
     id="g27" /><g
     id="g29" /><g
     id="g31" /><g
     id="g33" /><g
     id="g35" /><g
     id="g37" /><g
     id="g39" /><path
     d="m 15.674484,29.931045 c -0.546,0.709 -1.404,1.115 -2.356,1.115 -0.765,0 -1.533,-0.266 -2.164,-0.75 l -7.8269997,-6.018 c -0.169,-0.131 -0.323,-0.274 -0.465,-0.428 0.233,0.785 0.702,1.494 1.379,2.014 l 6.9509997,5.342 c 0.699,0.537 1.554,0.832 2.407,0.832 1.101,0 2.1,-0.479 2.74,-1.312 L 28.962459,13.783436 c 0.543,-0.705 0.594122,-1.910756 0.601122,-2.756756 z"
     id="path9-3"
     inkscape:connector-curvature="0"
     style="fill:#000000;fill-opacity:0.4535316;filter:url(#filter4420)"
     sodipodi:nodetypes="cscccccscccc"
     transform="matrix(13.45224,0,0,13.45224,3.6979824,11.689355)"
     inkscape:export-filename="C:\Users\ATV\Desktop\Universidad\InteractivasII\PizarraInteractiva\public\imgs\b.png"
     inkscape:export-xdpi="119"
     inkscape:export-ydpi="119" /><path
     style="opacity:1;fill:#2476ff;fill-opacity:1;fill-rule:nonzero;stroke:none;stroke-width:0.40000001;stroke-miterlimit:4;stroke-dasharray:none;stroke-opacity:1"
     d="m 278.91523,21.354964 93.00083,65.436016 c 36.80171,25.89393 28.43559,63.73241 -10.0933,104.14417 -31.05102,32.5684 -34.97343,70.12684 -59.9218,51.27648 L 185.43527,154.21324 c -35.90251,-27.12699 -37.46063,-19.51012 8.28824,-80.679265 26.9508,-36.034961 48.39002,-78.0729532 85.19172,-52.179011 z"
     id="rect4154"
     inkscape:connector-curvature="0"
     sodipodi:nodetypes="sssssss"
     inkscape:export-filename="C:\Users\ATV\Desktop\Universidad\InteractivasII\PizarraInteractiva\public\imgs\b.png"
     inkscape:export-xdpi="119"
     inkscape:export-ydpi="119" /><g
     id="g3"
     inkscape:export-filename="C:\Users\ATV\Desktop\Universidad\InteractivasII\PizarraInteractiva\public\imgs\b.png"
     inkscape:export-xdpi="119.00665"
     inkscape:export-ydpi="119.00665"
     transform="matrix(13.45224,0,0,13.45224,7.024017,7.6899662)"
     style="fill:#ff3a2f;fill-opacity:1"><g
       id="g5"
       style="fill:#ff3a2f;fill-opacity:1"><path
         d="m 28.118,10.573 c -0.014,0.035 -0.03,0.067 -0.046,0.103 0.019,-0.031 0.038,-0.061 0.056,-0.091 -0.003,-0.004 -0.008,-0.008 -0.01,-0.012 z"
         id="path7"
         inkscape:connector-curvature="0"
         style="fill:#ff3a2f;fill-opacity:1" /><path
         d="m 15.081,29.559 c -0.546,0.709 -1.404,1.115 -2.356,1.115 -0.765,0 -1.533,-0.266 -2.164,-0.75 L 2.734,23.906 C 2.565,23.775 2.411,23.632 2.269,23.478 c 0.233,0.785 0.702,1.494 1.379,2.014 l 6.951,5.342 c 0.699,0.537 1.554,0.832 2.407,0.832 1.101,0 2.1,-0.479 2.74,-1.312 L 29.128,12.937 c 0.543,-0.705 0.689,-1.721 0.696,-2.567 L 15.081,29.559 Z"
         id="path9"
         inkscape:connector-curvature="0"
         style="fill:#a6261f;fill-opacity:1" /><path
         d="m 2.904,23.686 7.828,6.019 c 0.582,0.446 1.289,0.692 1.993,0.692 0.865,0 1.644,-0.366 2.136,-1.008 L 29.814,9.926 C 29.811,9.852 29.808,9.776 29.802,9.707 29.732,8.795 29.332,7.084 28.15,6.174 L 21.199,0.832 C 20.501,0.296 19.646,0 18.793,0 17.821,0 17.135,0.35 16.681,0.697 L 2.143,19.617 c -0.006,0.007 -0.009,0.016 -0.015,0.023 -0.262,0.606 -0.381,1.33 -0.196,2.207 0.11,0.604 0.14,0.764 0.177,0.973 0.209,0.326 0.474,0.619 0.795,0.866 z M 16.292,2.5 C 16.933,1.666 17.707079,1.003717 18.651487,0.90236555 19.645799,0.79565865 20.739,1.483 21.436,2.019 l 5.777,4.21 c 1.183,0.909 1.503,1.596 1.572,2.508 0.028,0.527 -0.125,0.99 -0.292,1.327 l 0.007,0.005 -0.036,0.057 c -0.072,0.139 -0.142,0.244 -0.201,0.326 l -0.428,0.685 -0.079,0.104 c 0.125,-0.174 0.229,-0.361 0.314,-0.563 -0.029,0.055 -0.058,0.109 -0.098,0.161 L 27.751,11.246 22.73,17.8 22.009,17.248 21.995,17.266 12.92,10.293 11.356,9.099 Z"
         id="path11"
         inkscape:connector-curvature="0"
         style="fill:#ff3a2f;fill-opacity:1"
         sodipodi:nodetypes="ccscccccscccccccacccccccccccccccccc" /></g></g><rect
     style="opacity:0.644;fill:#ff00cc;fill-opacity:0;stroke:none;stroke-width:0.89999998;stroke-miterlimit:4;stroke-dasharray:none;stroke-opacity:1"
     id="rect4152"
     width="262.62659"
     height="229.23425"
     x="155.936"
     y="35.667385"
     inkscape:export-filename="C:\Users\ATV\Desktop\Universidad\InteractivasII\PizarraInteractiva\public\imgs\b.png"
     inkscape:export-xdpi="119"
     inkscape:export-ydpi="119" /></svg>