<?xml version="1.0" encoding="UTF-8" standalone="no"?>
<!-- Generator: Adobe Illustrator 18.0.0, SVG Export Plug-In . SVG Version: 6.00 Build 0)  -->

<svg
   xmlns:dc="http://purl.org/dc/elements/1.1/"
   xmlns:cc="http://creativecommons.org/ns#"
   xmlns:rdf="http://www.w3.org/1999/02/22-rdf-syntax-ns#"
   xmlns:svg="http://www.w3.org/2000/svg"
   xmlns="http://www.w3.org/2000/svg"
   xmlns:sodipodi="http://sodipodi.sourceforge.net/DTD/sodipodi-0.dtd"
   xmlns:inkscape="http://www.inkscape.org/namespaces/inkscape"
   version="1.1"
   id="Capa_1"
   x="0px"
   y="0px"
   viewBox="0 0 442 442"
   style="enable-background:new 0 0 442 442;"
   xml:space="preserve"
   inkscape:version="0.91 r"
   width="100%"
   height="100%"
   sodipodi:docname="herr.svg"><metadata
     id="metadata45"><rdf:RDF><cc:Work
         rdf:about=""><dc:format>image/svg+xml</dc:format><dc:type
           rdf:resource="http://purl.org/dc/dcmitype/StillImage" /><dc:title /></cc:Work></rdf:RDF></metadata><defs
     id="defs43" /><sodipodi:namedview
     pagecolor="#ffffff"
     bordercolor="#666666"
     borderopacity="1"
     objecttolerance="10"
     gridtolerance="10"
     guidetolerance="10"
     inkscape:pageopacity="0"
     inkscape:pageshadow="2"
     inkscape:window-width="1366"
     inkscape:window-height="706"
     id="namedview41"
     showgrid="false"
     inkscape:zoom="0.26696833"
     inkscape:cx="132.48887"
     inkscape:cy="-231.81074"
     inkscape:window-x="0"
     inkscape:window-y="0"
     inkscape:window-maximized="1"
     inkscape:current-layer="Capa_1" /><g
     id="g11" /><g
     id="g13" /><g
     id="g15" /><g
     id="g17" /><g
     id="g19" /><g
     id="g21" /><g
     id="g23" /><g
     id="g25" /><g
     id="g27" /><g
     id="g29" /><g
     id="g31" /><g
     id="g33" /><g
     id="g35" /><g
     id="g37" /><g
     id="g39" /><g
     id="g4184"
     transform="translate(-6.0124076,-7.3032909)"><path
       style="fill:#989898"
       d="m 344.71216,436.88696 c -4.48725,-1.52985 -10.956,-4.84844 -14.375,-7.37463 -3.41901,-2.52619 -26.58017,-25.04572 -51.46926,-50.04341 -41.60718,-41.78875 -45.5818,-46.15166 -49.33579,-54.15561 -3.5308,-7.5281 -4.14251,-10.31107 -4.52368,-20.58027 -0.35002,-9.42995 0.0658,-13.31803 2.01937,-18.88348 l 2.46015,-7.0085 -63.31314,-63.304 c -58.39814,-58.38972 -63.63841,-63.30402 -67.503156,-63.30402 -11.035845,0 -27.991272,-6.80701 -34.749905,-13.95088 C 58.291876,132.33139 25.886634,82.608935 23.650849,76.490676 21.1011,69.513249 22.83466,65.714459 33.040992,55.913834 c 7.82691,-7.515785 8.225673,-7.725389 13.554492,-7.124754 5.973357,0.673284 8.563283,2.177684 43.593208,25.321806 15.168568,10.021809 23.112368,16.101218 25.781448,19.730589 4.35672,5.924233 10.02563,22.478385 10.02563,29.276515 0,4.28055 3.17244,7.6838 63.4375,68.05303 l 63.4375,63.54714 8.125,-2.59322 c 12.62351,-4.02898 27.78338,-3.02656 39.375,2.60363 7.96197,3.86721 13.05146,8.53375 56.511,51.81472 46.33738,46.14697 47.90094,47.86162 52.45536,57.52404 4.38294,9.29863 4.69731,10.74971 4.739,21.875 0.0543,14.47371 -2.2423,21.92928 -10.00157,32.46949 -13.42749,18.23995 -37.8018,25.82587 -59.3624,18.47514 z M 59.745775,437.37753 C 45.632469,432.76003 33.6996,422.40708 27.145272,409.09334 c -4.082207,-8.29213 -4.274497,-9.30246 -4.274497,-22.45901 0,-23.66046 -2.915978,-19.74102 66.744954,-89.71379 32.681821,-32.82812 60.007821,-59.6875 60.724431,-59.6875 0.71662,0 13.00498,11.712 27.30747,26.02665 l 26.00451,26.02667 -1.52025,10.86721 c -1.16331,8.31574 -1.18464,13.24034 -0.0909,20.97484 l 1.4294,10.10762 -29.04983,29.98295 c -15.97742,16.49063 -38.50246,38.9789 -50.05565,49.97394 -25.91736,24.66527 -29.107456,26.43914 -48.369155,26.89584 -7.21875,0.17115 -14.53125,-0.1489 -16.25,-0.71123 z m 27.672632,-31.98536 c 12.242158,-8.10148 13.232763,-27.62294 1.838959,-36.23946 -5.723626,-4.32848 -13.402544,-6.06467 -19.528004,-4.41524 -5.678408,1.52902 -12.97614,7.40499 -15.672441,12.61905 -2.306944,4.46114 -2.337102,15.2398 -0.05491,19.6261 6.269503,12.0498 21.951881,15.99641 33.4164,8.40955 z M 310.37077,230.39206 c -17.06588,-2.97958 -28.35636,-3.59304 -37.33898,-2.02878 l -8.41734,1.46581 -21.69316,-20.98552 c -11.93123,-11.54204 -24.05238,-23.66779 -26.93588,-26.9461 l -5.24274,-5.96059 10.21493,-10.46529 10.21491,-10.4653 -1.47939,-10.11756 c -2.83775,-19.40756 2.22376,-43.91556 12.81088,-62.030687 7.47555,-12.791053 25.17982,-29.845542 37.86677,-36.476967 23.0717,-12.059497 49.97058,-14.80216 74.6875,-7.615286 2.57813,0.749634 4.6875,1.949694 4.6875,2.6668 0,0.717105 -12.02388,13.424943 -26.71975,28.23964 -30.69916,30.9474 -33.35027,34.82435 -34.23222,50.06081 -0.7186,12.41425 2.68983,21.85939 10.81856,29.97957 8.96064,8.9512 16.10957,11.89543 28.88341,11.89543 17.99473,0 18.97299,-0.62312 51.30844,-32.68233 15.50089,-15.36847 28.84954,-27.94267 29.66368,-27.94267 0.81414,0 1.82681,1.54688 2.25038,3.4375 0.42358,1.89063 1.28323,5.40625 1.91034,7.8125 2.17078,8.32925 2.73697,25.68679 1.18612,36.36279 -4.94884,34.0677 -27.35428,62.99806 -58.54734,75.59749 -17.58031,7.10101 -37.85248,9.34911 -55.89661,6.19874 z"
       id="path4188"
       inkscape:connector-curvature="0" /><path
       style="fill:#123658"
       d="m 343.77342,434.82424 c -3.62853,-1.33618 -9.25353,-4.39268 -12.5,-6.79221 -3.24644,-2.39952 -26.20736,-24.7953 -51.02423,-49.76837 -48.61929,-48.92533 -50.21436,-50.92635 -53.10728,-66.62275 -1.48941,-8.08125 -1.07648,-12.8545 2.26129,-26.13982 l 2.16239,-8.60696 -64.3318,-63.58054 -64.3318,-63.58055 -5.448224,0 c -5.78454,0 -17.321455,-2.91127 -23.003619,-5.80483 C 67.137172,140.20417 61.887662,133.74027 44.106119,106.56458 28.994171,83.468846 25.565624,77.39127 25.045532,72.77704 24.41987,67.226171 24.521971,67.04018 32.665,58.897151 44.067352,47.494799 43.39761,47.327218 78.379164,70.335688 c 28.519586,18.758233 33.517646,22.840663 37.612896,30.722332 2.86376,5.51157 6.25371,18.3199 6.25371,23.62857 0,3.54898 6.618,10.75954 62.71122,68.32613 34.49116,35.39714 63.70671,64.89121 64.92345,65.54239 1.59924,0.85588 3.43324,0.46355 6.6187,-1.41593 5.21643,-3.07776 21.1958,-4.96181 29.28682,-3.45306 12.69821,2.36786 18.96445,7.31942 59.58481,47.08367 51.8423,50.74969 56.19263,55.39537 60.98027,65.12044 3.78923,7.69704 4.01974,8.95519 4.01974,21.94153 0,12.8617 -0.26152,14.32825 -3.93907,22.09035 -4.99891,10.55105 -12.19582,17.74796 -22.74687,22.74687 -7.35353,3.48398 -9.75821,3.97636 -20.81406,4.26189 -9.87007,0.2549 -13.88805,-0.18833 -19.09735,-2.10663 z"
       id="path4186"
       inkscape:connector-curvature="0" /></g></svg>